<?xml version="1.0" encoding="UTF-8"?>
<svg xmlns="http://www.w3.org/2000/svg" viewBox="0 0 64 64">
  <!-- Background bubble -->
  <defs>
    <filter id="shadow" x="-20%" y="-20%" width="140%" height="140%">
      <feDropShadow dx="0" dy="2" stdDeviation="2" flood-opacity="0.2"/>
    </filter>
    <linearGradient id="g" x1="0" y1="0" x2="1" y2="1">
      <stop offset="0" stop-color="#7dd3fc"/>
      <stop offset="1" stop-color="#60a5fa"/>
    </linearGradient>
  </defs>
  <g filter="url(#shadow)">
    <path d="M10 14
             Q10 8 16 8
             L24 12 32 8
             Q38 8 38 14
             L54 14
             Q58 14 58 18
             L58 40
             Q58 52 46 52
             L27 52 17 58 18 52
             Q10 52 10 44
             Z" fill="url(#g)"/>
  </g>
  <!-- Cat ears (mew theme) -->
  <path d="M16 8 L20 14 L12 14 Z" fill="#38bdf8"/>
  <path d="M32 8 L28 14 L36 14 Z" fill="#38bdf8"/>
  <!-- Face -->
  <circle cx="24" cy="30" r="2" fill="#0f172a"/>
  <circle cx="36" cy="30" r="2" fill="#0f172a"/>
  <path d="M26 36 Q30 40 34 36" stroke="#0f172a" stroke-width="2" fill="none" stroke-linecap="round"/>
  <!-- Tiny sparkles -->
  <circle cx="48" cy="22" r="1.2" fill="white" opacity="0.9"/>
  <circle cx="44" cy="18" r="0.8" fill="white" opacity="0.7"/>
</svg>
